<?xml version='1.0' encoding='iso-8859-1'?>
<!-- Uploaded to: SVG Repo, www.svgrepo.com, Generator: SVG Repo Mixer Tools -->
<svg fill="#000000" height="800px" width="800px" version="1.1" xmlns="http://www.w3.org/2000/svg" viewBox="0 0 470 470" xmlns:xlink="http://www.w3.org/1999/xlink" enable-background="new 0 0 470 470">
  <g>
    <path d="M432.5,0h-395C16.822,0,0,16.822,0,37.5v395C0,453.178,16.822,470,37.5,470h395c20.678,0,37.5-16.822,37.5-37.5v-395   C470,16.822,453.178,0,432.5,0z M455,432.5c0,12.407-10.093,22.5-22.5,22.5h-395C25.093,455,15,444.907,15,432.5v-395   C15,25.093,25.093,15,37.5,15h395c12.407,0,22.5,10.093,22.5,22.5V432.5z"/>
    <path d="m178.504,215.993c20.678,0 37.5-16.822 37.5-37.5v-58c0-20.678-16.822-37.5-37.5-37.5h-58c-20.678,0-37.5,16.822-37.5,37.5v58c0,20.678 16.822,37.5 37.5,37.5h58zm-80.5-37.5v-58c0-12.407 10.093-22.5 22.5-22.5h58c12.407,0 22.5,10.093 22.5,22.5v58c0,12.407-10.093,22.5-22.5,22.5h-58c-12.406,0-22.5-10.094-22.5-22.5z"/>
    <path d="m432.488,30l-394.9-.024c-0.994,0-1.976,0.197-2.889,0.579-0.533,0.214-1.044,0.492-1.524,0.83-1.994,1.408-3.179,3.698-3.175,6.139l.088,59.964c0.006,4.138 3.362,7.489 7.5,7.489 4.154-0.006 7.506-3.369 7.5-7.511l-.077-52.488 380.012,.022-.023,379.991c-49.532,0.008-330.375,0.009-380.021,0.009l.109-297.521c0.001-4.142-3.355-7.501-7.497-7.503-4.144,0-7.501,3.356-7.503,7.497l-.112,304.936c0,0.959 0.183,1.907 0.539,2.793 1.09,2.825 3.83,4.797 6.998,4.797l333.25-.005c62.602-0.003 62.602-0.003 63.476-0.211 3.378-0.804 5.763-3.823 5.763-7.295l.024-394.9c0-0.959-0.184-1.907-0.54-2.793-1.092-2.824-3.831-4.795-6.998-4.795z"/>
    <path d="m304.931,386.983h19c12.407,0 22.5-10.093 22.5-22.5v-12h12c12.407,0 22.5-10.093 22.5-22.5v-19c0-12.407-10.093-22.5-22.5-22.5h-12v-12c0-12.407-10.093-22.5-22.5-22.5h-19c-12.407,0-22.5,10.093-22.5,22.5v12h-12c-12.407,0-22.5,10.093-22.5,22.5v19c0,12.407 10.093,22.5 22.5,22.5h12v12c0,12.407 10.093,22.5 22.5,22.5zm-34.5-49.5c-4.136,0-7.5-3.364-7.5-7.5v-19c0-4.136 3.364-7.5 7.5-7.5h19.5c4.142,0 7.5-3.358 7.5-7.5v-19.5c0-4.136 3.364-7.5 7.5-7.5h19c4.136,0 7.5,3.364 7.5,7.5v19.5c0,4.142 3.358,7.5 7.5,7.5h19.5c4.136,0 7.5,3.364 7.5,7.5v19c0,4.136-3.364,7.5-7.5,7.5h-19.5c-4.142,0-7.5,3.358-7.5,7.5v19.5c0,4.136-3.364,7.5-7.5,7.5h-19c-4.136,0-7.5-3.364-7.5-7.5v-19.5c0-4.142-3.358-7.5-7.5-7.5h-19.5z"/>
    <path d="m149.504,386.983c36.668,0 66.5-29.832 66.5-66.5s-29.832-66.5-66.5-66.5-66.5,29.832-66.5,66.5 29.832,66.5 66.5,66.5zm0-118c28.397,0 51.5,23.103 51.5,51.5s-23.103,51.5-51.5,51.5-51.5-23.103-51.5-51.5 23.103-51.5 51.5-51.5z"/>
    <path d="m380.487,168.773l-38.794-67.194c-6.92-11.986-16.602-18.587-27.262-18.587-10.66,0-20.341,6.601-27.262,18.587l-38.794,67.194c-6.92,11.986-7.796,23.671-2.466,32.903s15.888,14.316 29.728,14.316h77.589c13.84,0 24.398-5.084 29.728-14.316s4.453-20.916-2.467-32.903zm-10.525,25.404c-2.5,4.332-8.601,6.816-16.737,6.816h-77.589c-8.136,0-14.237-2.484-16.737-6.816-2.501-4.332-1.602-10.857 2.466-17.903l38.794-67.194c4.068-7.046 9.27-11.087 14.271-11.087 5.002,0 10.204,4.041 14.271,11.087l38.794,67.194c4.069,7.046 4.968,13.571 2.467,17.903z"/>
  </g>
</svg>